<svg xmlns="http://www.w3.org/2000/svg" width="1200" height="760" viewBox="0 0 1200 760" role="img" aria-label="Indicative Salary Bands in Thailand">
<defs>
  <marker id="arrow" markerWidth="14" markerHeight="14" refX="9" refY="4.5" orient="auto" markerUnits="strokeWidth">
    <path d="M0,0 L9,4.5 L0,9 z" fill="#123f63"/>
  </marker>
  <filter id="shadow" x="-10%" y="-10%" width="120%" height="120%">
    <feDropShadow dx="0" dy="6" stdDeviation="8" flood-color="#173048" flood-opacity="0.08"/>
  </filter>
</defs>
<style>
  .frame { fill: #fbfdff; stroke: #d8e0e8; stroke-width: 2; }
  .header { fill: #123f63; }
  .headerTitle { font: 700 34px Arial, Helvetica, sans-serif; fill: #ffffff; letter-spacing: 0.2px; }
  .headerSub { font: 18px Arial, Helvetica, sans-serif; fill: #d8e6f0; }
  .panel { fill: #ffffff; stroke: #d8e0e8; stroke-width: 2; }
  .panelSoft { fill: #f4f8fb; stroke: #d8e0e8; stroke-width: 2; }
  .title { font: 700 24px Arial, Helvetica, sans-serif; fill: #123f63; }
  .body { font: 18px Arial, Helvetica, sans-serif; fill: #5f7385; }
  .small { font: 15px Arial, Helvetica, sans-serif; fill: #5f7385; }
  .axis { font: 16px Arial, Helvetica, sans-serif; fill: #5f7385; }
  .chip { font: 700 16px Arial, Helvetica, sans-serif; fill: #123f63; }
  .label { font: 700 18px Arial, Helvetica, sans-serif; fill: #123f63; }
  .value { font: 700 18px Arial, Helvetica, sans-serif; fill: #1f2f3d; }
  .mutedStrong { font: 700 16px Arial, Helvetica, sans-serif; fill: #5f7385; }
</style>
<rect class="frame" x="1" y="1" rx="22" ry="22" width="1198" height="758"/>
<rect class="header" x="0" y="0" width="1200" height="82"/>
<text class="headerTitle" x="34" y="48">Indicative Salary Bands in Thailand</text>
<text class="headerSub" x="34" y="69">Reasoned monthly THB ranges from Chapter 12</text><line x1="280.0" y1="154" x2="280.0" y2="628" stroke="#d8e0e8" stroke-width="2" stroke-linecap="round"/><text x="280.0" y="138" font-family="Arial, Helvetica, sans-serif" font-size="16" font-weight="700" fill="#5f7385" text-anchor="middle">0k</text><line x1="499.44444444444446" y1="154" x2="499.44444444444446" y2="628" stroke="#d8e0e8" stroke-width="2" stroke-linecap="round"/><text x="499.44444444444446" y="138" font-family="Arial, Helvetica, sans-serif" font-size="16" font-weight="700" fill="#5f7385" text-anchor="middle">50k</text><line x1="718.8888888888889" y1="154" x2="718.8888888888889" y2="628" stroke="#d8e0e8" stroke-width="2" stroke-linecap="round"/><text x="718.8888888888889" y="138" font-family="Arial, Helvetica, sans-serif" font-size="16" font-weight="700" fill="#5f7385" text-anchor="middle">100k</text><line x1="938.3333333333334" y1="154" x2="938.3333333333334" y2="628" stroke="#d8e0e8" stroke-width="2" stroke-linecap="round"/><text x="938.3333333333334" y="138" font-family="Arial, Helvetica, sans-serif" font-size="16" font-weight="700" fill="#5f7385" text-anchor="middle">150k</text><line x1="1070.0" y1="154" x2="1070.0" y2="628" stroke="#d8e0e8" stroke-width="2" stroke-linecap="round"/><text x="1070.0" y="138" font-family="Arial, Helvetica, sans-serif" font-size="16" font-weight="700" fill="#5f7385" text-anchor="middle">180k+</text><text x="72" y="208" font-family="Arial, Helvetica, sans-serif" font-size="18" font-weight="700" fill="#123f63" text-anchor="start"><tspan x="72" dy="0">GIS analyst / assistant</tspan><tspan x="72" dy="24.3">GIS</tspan></text><rect x="389.72222222222223" y="186" width="65.83333333333331" height="14" rx="7" ry="7" fill="#d9e8f2" stroke="#123f63" stroke-width="2"/><rect x="455.55555555555554" y="204" width="131.66666666666663" height="14" rx="7" ry="7" fill="#f8f1dd" stroke="#c77b33" stroke-width="2"/><rect x="587.2222222222222" y="222" width="175.55555555555566" height="14" rx="7" ry="7" fill="#eaf5ef" stroke="#2f7a57" stroke-width="2"/><text x="72" y="296" font-family="Arial, Helvetica, sans-serif" font-size="18" font-weight="700" fill="#123f63" text-anchor="start"><tspan x="72" dy="0">Geospatial data / remote</tspan><tspan x="72" dy="24.3">sensing</tspan></text><rect x="433.6111111111111" y="274" width="109.72222222222217" height="14" rx="7" ry="7" fill="#d9e8f2" stroke="#123f63" stroke-width="2"/><rect x="543.3333333333333" y="292" width="219.44444444444457" height="14" rx="7" ry="7" fill="#f8f1dd" stroke="#c77b33" stroke-width="2"/><rect x="718.8888888888889" y="310" width="219.44444444444446" height="14" rx="7" ry="7" fill="#eaf5ef" stroke="#2f7a57" stroke-width="2"/><text x="72" y="384" font-family="Arial, Helvetica, sans-serif" font-size="18" font-weight="700" fill="#123f63" text-anchor="start"><tspan x="72" dy="0">GIS consulting</tspan></text><rect x="411.66666666666663" y="362" width="87.77777777777783" height="14" rx="7" ry="7" fill="#d9e8f2" stroke="#123f63" stroke-width="2"/><rect x="499.44444444444446" y="380" width="175.55555555555554" height="14" rx="7" ry="7" fill="#f8f1dd" stroke="#c77b33" stroke-width="2"/><rect x="675.0" y="398" width="219.44444444444446" height="14" rx="7" ry="7" fill="#eaf5ef" stroke="#2f7a57" stroke-width="2"/><text x="72" y="472" font-family="Arial, Helvetica, sans-serif" font-size="18" font-weight="700" fill="#123f63" text-anchor="start"><tspan x="72" dy="0">Satcom / ground systems</tspan><tspan x="72" dy="24.3">/ RF</tspan></text><rect x="402.8888888888889" y="450" width="74.61111111111109" height="14" rx="7" ry="7" fill="#d9e8f2" stroke="#123f63" stroke-width="2"/><rect x="477.5" y="468" width="153.6111111111111" height="14" rx="7" ry="7" fill="#f8f1dd" stroke="#c77b33" stroke-width="2"/><rect x="587.2222222222222" y="486" width="263.33333333333337" height="14" rx="7" ry="7" fill="#eaf5ef" stroke="#2f7a57" stroke-width="2"/><text x="72" y="560" font-family="Arial, Helvetica, sans-serif" font-size="18" font-weight="700" fill="#123f63" text-anchor="start"><tspan x="72" dy="0">Platform / data</tspan><tspan x="72" dy="24.3">management lead</tspan></text><rect x="543.3333333333333" y="556" width="263.33333333333337" height="14" rx="7" ry="7" fill="#f8f1dd" stroke="#c77b33" stroke-width="2"/><rect x="718.8888888888889" y="574" width="351.1111111111111" height="14" rx="7" ry="7" fill="#eaf5ef" stroke="#2f7a57" stroke-width="2"/><rect x="332" y="654" width="120" height="32" rx="16.0" ry="16.0" fill="#d9e8f2"/><text x="392.0" y="676.0" font-family="Arial, Helvetica, sans-serif" font-size="16" font-weight="700" fill="#123f63" text-anchor="middle">Entry</text><rect x="470" y="654" width="120" height="32" rx="16.0" ry="16.0" fill="#f8f1dd"/><text x="530.0" y="676.0" font-family="Arial, Helvetica, sans-serif" font-size="16" font-weight="700" fill="#123f63" text-anchor="middle">Mid</text><rect x="608" y="654" width="120" height="32" rx="16.0" ry="16.0" fill="#eaf5ef"/><text x="668.0" y="676.0" font-family="Arial, Helvetica, sans-serif" font-size="16" font-weight="700" fill="#123f63" text-anchor="middle">Senior</text><text x="1166" y="740" font-family="Arial, Helvetica, sans-serif" font-size="14" fill="#5f7385" text-anchor="end">Indicative THB per month ranges from Chapter 12.</text></svg>
