<svg xmlns="http://www.w3.org/2000/svg" width="1200" height="760" viewBox="0 0 1200 760" role="img" aria-label="Global Capability Ladder">
<defs>
  <marker id="arrow" markerWidth="14" markerHeight="14" refX="9" refY="4.5" orient="auto" markerUnits="strokeWidth">
    <path d="M0,0 L9,4.5 L0,9 z" fill="#123f63"/>
  </marker>
  <filter id="shadow" x="-10%" y="-10%" width="120%" height="120%">
    <feDropShadow dx="0" dy="6" stdDeviation="8" flood-color="#173048" flood-opacity="0.08"/>
  </filter>
</defs>
<style>
  .frame { fill: #fbfdff; stroke: #d8e0e8; stroke-width: 2; }
  .header { fill: #123f63; }
  .headerTitle { font: 700 34px Arial, Helvetica, sans-serif; fill: #ffffff; letter-spacing: 0.2px; }
  .headerSub { font: 18px Arial, Helvetica, sans-serif; fill: #d8e6f0; }
  .panel { fill: #ffffff; stroke: #d8e0e8; stroke-width: 2; }
  .panelSoft { fill: #f4f8fb; stroke: #d8e0e8; stroke-width: 2; }
  .title { font: 700 24px Arial, Helvetica, sans-serif; fill: #123f63; }
  .body { font: 18px Arial, Helvetica, sans-serif; fill: #5f7385; }
  .small { font: 15px Arial, Helvetica, sans-serif; fill: #5f7385; }
  .axis { font: 16px Arial, Helvetica, sans-serif; fill: #5f7385; }
  .chip { font: 700 16px Arial, Helvetica, sans-serif; fill: #123f63; }
  .label { font: 700 18px Arial, Helvetica, sans-serif; fill: #123f63; }
  .value { font: 700 18px Arial, Helvetica, sans-serif; fill: #1f2f3d; }
  .mutedStrong { font: 700 16px Arial, Helvetica, sans-serif; fill: #5f7385; }
</style>
<rect class="frame" x="1" y="1" rx="22" ry="22" width="1198" height="758"/>
<rect class="header" x="0" y="0" width="1200" height="82"/>
<text class="headerTitle" x="34" y="48">Global Capability Ladder</text>
<text class="headerSub" x="34" y="69">Thailand compared with Japan, India, and China</text><rect x="66" y="130" width="900" height="76" rx="14" ry="14" fill="#123f63" stroke="#123f63" stroke-width="2"/><text x="176.0" y="158" font-family="Arial, Helvetica, sans-serif" font-size="18" font-weight="700" fill="#ffffff" text-anchor="middle"><tspan x="176.0" dy="0">Capability</tspan></text><text x="371.0" y="158" font-family="Arial, Helvetica, sans-serif" font-size="18" font-weight="700" fill="#ffffff" text-anchor="middle"><tspan x="371.0" dy="0">Thailand</tspan></text><text x="541.0" y="158" font-family="Arial, Helvetica, sans-serif" font-size="18" font-weight="700" fill="#ffffff" text-anchor="middle"><tspan x="541.0" dy="0">Japan</tspan></text><text x="711.0" y="158" font-family="Arial, Helvetica, sans-serif" font-size="18" font-weight="700" fill="#ffffff" text-anchor="middle"><tspan x="711.0" dy="0">India</tspan></text><text x="881.0" y="158" font-family="Arial, Helvetica, sans-serif" font-size="18" font-weight="700" fill="#ffffff" text-anchor="middle"><tspan x="881.0" dy="0">China</tspan></text><rect x="66" y="206" width="220" height="76" rx="0" ry="0" fill="#ffffff" stroke="#d8e0e8" stroke-width="2"/><text x="80" y="232" font-family="Arial, Helvetica, sans-serif" font-size="18" font-weight="700" fill="#123f63" text-anchor="start"><tspan x="80" dy="0">Launch</tspan></text><rect x="286" y="206" width="170" height="76" rx="0" ry="0" fill="#ffffff" stroke="#d8e0e8" stroke-width="2"/><text x="371.0" y="234" font-family="Arial, Helvetica, sans-serif" font-size="16" font-weight="700" fill="#1f2f3d" text-anchor="middle"><tspan x="371.0" dy="0">Limited</tspan></text><rect x="456" y="206" width="170" height="76" rx="0" ry="0" fill="#ffffff" stroke="#d8e0e8" stroke-width="2"/><text x="541.0" y="234" font-family="Arial, Helvetica, sans-serif" font-size="16" font-weight="700" fill="#1f2f3d" text-anchor="middle"><tspan x="541.0" dy="0">Strong</tspan></text><rect x="626" y="206" width="170" height="76" rx="0" ry="0" fill="#ffffff" stroke="#d8e0e8" stroke-width="2"/><text x="711.0" y="234" font-family="Arial, Helvetica, sans-serif" font-size="16" font-weight="700" fill="#1f2f3d" text-anchor="middle"><tspan x="711.0" dy="0">Strong</tspan></text><rect x="796" y="206" width="170" height="76" rx="0" ry="0" fill="#ffffff" stroke="#d8e0e8" stroke-width="2"/><text x="881.0" y="234" font-family="Arial, Helvetica, sans-serif" font-size="16" font-weight="700" fill="#1f2f3d" text-anchor="middle"><tspan x="881.0" dy="0">Very strong</tspan></text><rect x="66" y="282" width="220" height="76" rx="0" ry="0" fill="#f4f8fb" stroke="#d8e0e8" stroke-width="2"/><text x="80" y="308" font-family="Arial, Helvetica, sans-serif" font-size="18" font-weight="700" fill="#123f63" text-anchor="start"><tspan x="80" dy="0">Earth observation</tspan></text><rect x="286" y="282" width="170" height="76" rx="0" ry="0" fill="#f4f8fb" stroke="#d8e0e8" stroke-width="2"/><text x="371.0" y="310" font-family="Arial, Helvetica, sans-serif" font-size="16" font-weight="700" fill="#1f2f3d" text-anchor="middle"><tspan x="371.0" dy="0">Emerging</tspan></text><rect x="456" y="282" width="170" height="76" rx="0" ry="0" fill="#f4f8fb" stroke="#d8e0e8" stroke-width="2"/><text x="541.0" y="310" font-family="Arial, Helvetica, sans-serif" font-size="16" font-weight="700" fill="#1f2f3d" text-anchor="middle"><tspan x="541.0" dy="0">Strong</tspan></text><rect x="626" y="282" width="170" height="76" rx="0" ry="0" fill="#f4f8fb" stroke="#d8e0e8" stroke-width="2"/><text x="711.0" y="310" font-family="Arial, Helvetica, sans-serif" font-size="16" font-weight="700" fill="#1f2f3d" text-anchor="middle"><tspan x="711.0" dy="0">Strong</tspan></text><rect x="796" y="282" width="170" height="76" rx="0" ry="0" fill="#f4f8fb" stroke="#d8e0e8" stroke-width="2"/><text x="881.0" y="310" font-family="Arial, Helvetica, sans-serif" font-size="16" font-weight="700" fill="#1f2f3d" text-anchor="middle"><tspan x="881.0" dy="0">Very strong</tspan></text><rect x="66" y="358" width="220" height="76" rx="0" ry="0" fill="#ffffff" stroke="#d8e0e8" stroke-width="2"/><text x="80" y="384" font-family="Arial, Helvetica, sans-serif" font-size="18" font-weight="700" fill="#123f63" text-anchor="start"><tspan x="80" dy="0">Navigation</tspan></text><rect x="286" y="358" width="170" height="76" rx="0" ry="0" fill="#ffffff" stroke="#d8e0e8" stroke-width="2"/><text x="371.0" y="386" font-family="Arial, Helvetica, sans-serif" font-size="16" font-weight="700" fill="#1f2f3d" text-anchor="middle"><tspan x="371.0" dy="0">Dependent</tspan></text><rect x="456" y="358" width="170" height="76" rx="0" ry="0" fill="#ffffff" stroke="#d8e0e8" stroke-width="2"/><text x="541.0" y="386" font-family="Arial, Helvetica, sans-serif" font-size="16" font-weight="700" fill="#1f2f3d" text-anchor="middle"><tspan x="541.0" dy="0">Strong</tspan></text><rect x="626" y="358" width="170" height="76" rx="0" ry="0" fill="#ffffff" stroke="#d8e0e8" stroke-width="2"/><text x="711.0" y="386" font-family="Arial, Helvetica, sans-serif" font-size="16" font-weight="700" fill="#1f2f3d" text-anchor="middle"><tspan x="711.0" dy="0">Strong</tspan></text><rect x="796" y="358" width="170" height="76" rx="0" ry="0" fill="#ffffff" stroke="#d8e0e8" stroke-width="2"/><text x="881.0" y="386" font-family="Arial, Helvetica, sans-serif" font-size="16" font-weight="700" fill="#1f2f3d" text-anchor="middle"><tspan x="881.0" dy="0">Very strong</tspan></text><rect x="66" y="434" width="220" height="76" rx="0" ry="0" fill="#f4f8fb" stroke="#d8e0e8" stroke-width="2"/><text x="80" y="460" font-family="Arial, Helvetica, sans-serif" font-size="18" font-weight="700" fill="#123f63" text-anchor="start"><tspan x="80" dy="0">Ground systems</tspan></text><rect x="286" y="434" width="170" height="76" rx="0" ry="0" fill="#f4f8fb" stroke="#d8e0e8" stroke-width="2"/><text x="371.0" y="462" font-family="Arial, Helvetica, sans-serif" font-size="16" font-weight="700" fill="#1f2f3d" text-anchor="middle"><tspan x="371.0" dy="0">Operational</tspan></text><rect x="456" y="434" width="170" height="76" rx="0" ry="0" fill="#f4f8fb" stroke="#d8e0e8" stroke-width="2"/><text x="541.0" y="462" font-family="Arial, Helvetica, sans-serif" font-size="16" font-weight="700" fill="#1f2f3d" text-anchor="middle"><tspan x="541.0" dy="0">Strong</tspan></text><rect x="626" y="434" width="170" height="76" rx="0" ry="0" fill="#f4f8fb" stroke="#d8e0e8" stroke-width="2"/><text x="711.0" y="462" font-family="Arial, Helvetica, sans-serif" font-size="16" font-weight="700" fill="#1f2f3d" text-anchor="middle"><tspan x="711.0" dy="0">Strong</tspan></text><rect x="796" y="434" width="170" height="76" rx="0" ry="0" fill="#f4f8fb" stroke="#d8e0e8" stroke-width="2"/><text x="881.0" y="462" font-family="Arial, Helvetica, sans-serif" font-size="16" font-weight="700" fill="#1f2f3d" text-anchor="middle"><tspan x="881.0" dy="0">Very strong</tspan></text><rect x="66" y="510" width="220" height="76" rx="0" ry="0" fill="#ffffff" stroke="#d8e0e8" stroke-width="2"/><text x="80" y="536" font-family="Arial, Helvetica, sans-serif" font-size="18" font-weight="700" fill="#123f63" text-anchor="start"><tspan x="80" dy="0">Data services</tspan></text><rect x="286" y="510" width="170" height="76" rx="0" ry="0" fill="#ffffff" stroke="#d8e0e8" stroke-width="2"/><text x="371.0" y="538" font-family="Arial, Helvetica, sans-serif" font-size="16" font-weight="700" fill="#1f2f3d" text-anchor="middle"><tspan x="371.0" dy="0">Growing</tspan></text><rect x="456" y="510" width="170" height="76" rx="0" ry="0" fill="#ffffff" stroke="#d8e0e8" stroke-width="2"/><text x="541.0" y="538" font-family="Arial, Helvetica, sans-serif" font-size="16" font-weight="700" fill="#1f2f3d" text-anchor="middle"><tspan x="541.0" dy="0">Strong</tspan></text><rect x="626" y="510" width="170" height="76" rx="0" ry="0" fill="#ffffff" stroke="#d8e0e8" stroke-width="2"/><text x="711.0" y="538" font-family="Arial, Helvetica, sans-serif" font-size="16" font-weight="700" fill="#1f2f3d" text-anchor="middle"><tspan x="711.0" dy="0">Strong</tspan></text><rect x="796" y="510" width="170" height="76" rx="0" ry="0" fill="#ffffff" stroke="#d8e0e8" stroke-width="2"/><text x="881.0" y="538" font-family="Arial, Helvetica, sans-serif" font-size="16" font-weight="700" fill="#1f2f3d" text-anchor="middle"><tspan x="881.0" dy="0">Very strong</tspan></text><rect x="66" y="586" width="220" height="76" rx="0" ry="0" fill="#f4f8fb" stroke="#d8e0e8" stroke-width="2"/><text x="80" y="612" font-family="Arial, Helvetica, sans-serif" font-size="18" font-weight="700" fill="#123f63" text-anchor="start"><tspan x="80" dy="0">Industrial depth</tspan></text><rect x="286" y="586" width="170" height="76" rx="0" ry="0" fill="#f4f8fb" stroke="#d8e0e8" stroke-width="2"/><text x="371.0" y="614" font-family="Arial, Helvetica, sans-serif" font-size="16" font-weight="700" fill="#1f2f3d" text-anchor="middle"><tspan x="371.0" dy="0">Thin</tspan></text><rect x="456" y="586" width="170" height="76" rx="0" ry="0" fill="#f4f8fb" stroke="#d8e0e8" stroke-width="2"/><text x="541.0" y="614" font-family="Arial, Helvetica, sans-serif" font-size="16" font-weight="700" fill="#1f2f3d" text-anchor="middle"><tspan x="541.0" dy="0">Strong</tspan></text><rect x="626" y="586" width="170" height="76" rx="0" ry="0" fill="#f4f8fb" stroke="#d8e0e8" stroke-width="2"/><text x="711.0" y="614" font-family="Arial, Helvetica, sans-serif" font-size="16" font-weight="700" fill="#1f2f3d" text-anchor="middle"><tspan x="711.0" dy="0">Strong</tspan></text><rect x="796" y="586" width="170" height="76" rx="0" ry="0" fill="#f4f8fb" stroke="#d8e0e8" stroke-width="2"/><text x="881.0" y="614" font-family="Arial, Helvetica, sans-serif" font-size="16" font-weight="700" fill="#1f2f3d" text-anchor="middle"><tspan x="881.0" dy="0">Very strong</tspan></text><rect x="110" y="658" width="210" height="34" rx="17.0" ry="17.0" fill="#fbeceb"/><text x="215.0" y="681.0" font-family="Arial, Helvetica, sans-serif" font-size="16" font-weight="700" fill="#b85b55" text-anchor="middle">Limited / Thin</text><rect x="360" y="658" width="210" height="34" rx="17.0" ry="17.0" fill="#f8f1dd"/><text x="465.0" y="681.0" font-family="Arial, Helvetica, sans-serif" font-size="16" font-weight="700" fill="#c77b33" text-anchor="middle">Growing / Operational</text><rect x="610" y="658" width="230" height="34" rx="17.0" ry="17.0" fill="#eaf5ef"/><text x="725.0" y="681.0" font-family="Arial, Helvetica, sans-serif" font-size="16" font-weight="700" fill="#2f7a57" text-anchor="middle">Strong / Very strong</text><text x="1166" y="740" font-family="Arial, Helvetica, sans-serif" font-size="14" fill="#5f7385" text-anchor="end">Qualitative capability ladder, not a budget chart.</text></svg>
