<svg xmlns="http://www.w3.org/2000/svg" width="1200" height="760" viewBox="0 0 1200 760" role="img" aria-label="Bangkok-Style Urban GIS Stack">
<defs>
  <marker id="arrow" markerWidth="14" markerHeight="14" refX="9" refY="4.5" orient="auto" markerUnits="strokeWidth">
    <path d="M0,0 L9,4.5 L0,9 z" fill="#123f63"/>
  </marker>
  <filter id="shadow" x="-10%" y="-10%" width="120%" height="120%">
    <feDropShadow dx="0" dy="6" stdDeviation="8" flood-color="#173048" flood-opacity="0.08"/>
  </filter>
</defs>
<style>
  .frame { fill: #fbfdff; stroke: #d8e0e8; stroke-width: 2; }
  .header { fill: #123f63; }
  .headerTitle { font: 700 34px Arial, Helvetica, sans-serif; fill: #ffffff; letter-spacing: 0.2px; }
  .headerSub { font: 18px Arial, Helvetica, sans-serif; fill: #d8e6f0; }
  .panel { fill: #ffffff; stroke: #d8e0e8; stroke-width: 2; }
  .panelSoft { fill: #f4f8fb; stroke: #d8e0e8; stroke-width: 2; }
  .title { font: 700 24px Arial, Helvetica, sans-serif; fill: #123f63; }
  .body { font: 18px Arial, Helvetica, sans-serif; fill: #5f7385; }
  .small { font: 15px Arial, Helvetica, sans-serif; fill: #5f7385; }
  .axis { font: 16px Arial, Helvetica, sans-serif; fill: #5f7385; }
  .chip { font: 700 16px Arial, Helvetica, sans-serif; fill: #123f63; }
  .label { font: 700 18px Arial, Helvetica, sans-serif; fill: #123f63; }
  .value { font: 700 18px Arial, Helvetica, sans-serif; fill: #1f2f3d; }
  .mutedStrong { font: 700 16px Arial, Helvetica, sans-serif; fill: #5f7385; }
</style>
<rect class="frame" x="1" y="1" rx="22" ry="22" width="1198" height="758"/>
<rect class="header" x="0" y="0" width="1200" height="82"/>
<text class="headerTitle" x="34" y="48">Bangkok-Style Urban GIS Stack</text>
<text class="headerSub" x="34" y="69">A schematic city map showing layered geospatial signals</text><polygon points="104,150 360,132 404,286 160,306" fill="#eef2f5" stroke="#d8e0e8" stroke-width="2"/><polygon points="370,136 640,148 620,314 404,286" fill="#f3f6f9" stroke="#d8e0e8" stroke-width="2"/><polygon points="650,148 1044,174 1028,326 618,314" fill="#eef3f7" stroke="#d8e0e8" stroke-width="2"/><polygon points="120,316 400,300 376,520 146,560" fill="#f5f8fa" stroke="#d8e0e8" stroke-width="2"/><polygon points="400,304 650,320 612,548 378,520" fill="#eef2f6" stroke="#d8e0e8" stroke-width="2"/><polygon points="650,320 1020,334 986,560 612,548" fill="#f5f8fb" stroke="#d8e0e8" stroke-width="2"/><path d="M530 138 C500 210 470 256 500 330 C528 406 612 456 586 546 C568 608 524 650 514 700" fill="none" stroke="#67a6d4" stroke-width="34" stroke-linecap="round" stroke-linejoin="round" opacity="0.9"/><path d="M530 138 C500 210 470 256 500 330 C528 406 612 456 586 546 C568 608 524 650 514 700" fill="none" stroke="#d9eefc" stroke-width="18" stroke-linecap="round" stroke-linejoin="round" opacity="1"/><path d="M120 252 C250 226 360 228 474 250" fill="none" stroke="#cad5df" stroke-width="12" stroke-linecap="round" stroke-linejoin="round"/><path d="M120 252 C250 226 360 228 474 250" fill="none" stroke="#ffffff" stroke-width="6" stroke-linecap="round" stroke-linejoin="round"/><path d="M230 392 C360 370 504 384 650 418" fill="none" stroke="#cad5df" stroke-width="12" stroke-linecap="round" stroke-linejoin="round"/><path d="M230 392 C360 370 504 384 650 418" fill="none" stroke="#ffffff" stroke-width="6" stroke-linecap="round" stroke-linejoin="round"/><path d="M706 220 C826 232 914 272 1046 306" fill="none" stroke="#cad5df" stroke-width="12" stroke-linecap="round" stroke-linejoin="round"/><path d="M706 220 C826 232 914 272 1046 306" fill="none" stroke="#ffffff" stroke-width="6" stroke-linecap="round" stroke-linejoin="round"/><path d="M734 514 C846 498 930 510 1024 536" fill="none" stroke="#cad5df" stroke-width="12" stroke-linecap="round" stroke-linejoin="round"/><path d="M734 514 C846 498 930 510 1024 536" fill="none" stroke="#ffffff" stroke-width="6" stroke-linecap="round" stroke-linejoin="round"/><path d="M318 154 C314 274 316 406 310 610" fill="none" stroke="#cad5df" stroke-width="12" stroke-linecap="round" stroke-linejoin="round"/><path d="M318 154 C314 274 316 406 310 610" fill="none" stroke="#ffffff" stroke-width="6" stroke-linecap="round" stroke-linejoin="round"/><path d="M792 176 C786 290 780 416 774 592" fill="none" stroke="#cad5df" stroke-width="12" stroke-linecap="round" stroke-linejoin="round"/><path d="M792 176 C786 290 780 416 774 592" fill="none" stroke="#ffffff" stroke-width="6" stroke-linecap="round" stroke-linejoin="round"/><circle cx="470" cy="270" r="15" fill="#2c7fb8" stroke="#ffffff" stroke-width="4"/><circle cx="470" cy="270" r="28" fill="#67a6d4" opacity="0.16"/><circle cx="532" cy="340" r="15" fill="#2c7fb8" stroke="#ffffff" stroke-width="4"/><circle cx="532" cy="340" r="28" fill="#67a6d4" opacity="0.16"/><circle cx="584" cy="420" r="15" fill="#2c7fb8" stroke="#ffffff" stroke-width="4"/><circle cx="584" cy="420" r="28" fill="#67a6d4" opacity="0.16"/><circle cx="540" cy="520" r="15" fill="#2c7fb8" stroke="#ffffff" stroke-width="4"/><circle cx="540" cy="520" r="28" fill="#67a6d4" opacity="0.16"/><circle cx="250" cy="214" r="48" fill="#f1a44d" opacity="0.18"/><circle cx="250" cy="214" r="16" fill="#d27c1d" stroke="#ffffff" stroke-width="3"/><circle cx="870" cy="268" r="56" fill="#f1a44d" opacity="0.18"/><circle cx="870" cy="268" r="16" fill="#d27c1d" stroke="#ffffff" stroke-width="3"/><circle cx="930" cy="474" r="44" fill="#f1a44d" opacity="0.18"/><circle cx="930" cy="474" r="16" fill="#d27c1d" stroke="#ffffff" stroke-width="3"/><circle cx="250" cy="430" r="86" fill="none" stroke="#4ba37d" stroke-width="3" opacity="0.45"/><circle cx="250" cy="430" r="58" fill="none" stroke="#4ba37d" stroke-width="2" opacity="0.45"/><circle cx="250" cy="430" r="12" fill="#4ba37d" stroke="#ffffff" stroke-width="4"/><circle cx="720" cy="410" r="86" fill="none" stroke="#4ba37d" stroke-width="3" opacity="0.45"/><circle cx="720" cy="410" r="58" fill="none" stroke="#4ba37d" stroke-width="2" opacity="0.45"/><circle cx="720" cy="410" r="12" fill="#4ba37d" stroke="#ffffff" stroke-width="4"/><circle cx="920" cy="240" r="86" fill="none" stroke="#4ba37d" stroke-width="3" opacity="0.45"/><circle cx="920" cy="240" r="58" fill="none" stroke="#4ba37d" stroke-width="2" opacity="0.45"/><circle cx="920" cy="240" r="12" fill="#4ba37d" stroke="#ffffff" stroke-width="4"/><text x="150" y="182" font-family="Arial, Helvetica, sans-serif" font-size="18" font-weight="700" fill="#123f63" text-anchor="start">North corridor</text><text x="748" y="190" font-family="Arial, Helvetica, sans-serif" font-size="18" font-weight="700" fill="#123f63" text-anchor="start">Inner Bangkok</text><text x="144" y="598" font-family="Arial, Helvetica, sans-serif" font-size="18" font-weight="700" fill="#123f63" text-anchor="start">East logistics belt</text><rect x="838" y="572" width="292" height="124" rx="16" ry="16" fill="#ffffff" stroke="#d8e0e8" stroke-width="2" filter="url(#shadow)"/><text x="860" y="602" font-family="Arial, Helvetica, sans-serif" font-size="22" font-weight="700" fill="#123f63" text-anchor="start">Legend</text><circle cx="878" cy="628" r="10" fill="#2c7fb8" stroke="#ffffff" stroke-width="3"/><text x="904" y="634" font-family="Arial, Helvetica, sans-serif" font-size="17" font-weight="700" fill="#5f7385" text-anchor="start">Flood telemetry point</text><circle cx="878" cy="656" r="12" fill="#d27c1d" stroke="#ffffff" stroke-width="3"/><text x="904" y="662" font-family="Arial, Helvetica, sans-serif" font-size="17" font-weight="700" fill="#5f7385" text-anchor="start">PM2.5 hotspot</text><circle cx="878" cy="684" r="11" fill="#4ba37d" stroke="#ffffff" stroke-width="3"/><text x="904" y="690" font-family="Arial, Helvetica, sans-serif" font-size="17" font-weight="700" fill="#5f7385" text-anchor="start">Conceptual 5G / cell coverage</text><text x="1166" y="740" font-family="Arial, Helvetica, sans-serif" font-size="14" fill="#5f7385" text-anchor="end">Schematic city map built for concept clarity, not cadastral fidelity.</text></svg>
