<svg xmlns="http://www.w3.org/2000/svg" width="1200" height="760" viewBox="0 0 1200 760" role="img" aria-label="Convert Year 3 into Employability">
<defs>
  <marker id="arrow" markerWidth="14" markerHeight="14" refX="9" refY="4.5" orient="auto" markerUnits="strokeWidth">
    <path d="M0,0 L9,4.5 L0,9 z" fill="#123f63"/>
  </marker>
  <filter id="shadow" x="-10%" y="-10%" width="120%" height="120%">
    <feDropShadow dx="0" dy="6" stdDeviation="8" flood-color="#173048" flood-opacity="0.08"/>
  </filter>
</defs>
<style>
  .frame { fill: #fbfdff; stroke: #d8e0e8; stroke-width: 2; }
  .header { fill: #123f63; }
  .headerTitle { font: 700 34px Arial, Helvetica, sans-serif; fill: #ffffff; letter-spacing: 0.2px; }
  .headerSub { font: 18px Arial, Helvetica, sans-serif; fill: #d8e6f0; }
  .panel { fill: #ffffff; stroke: #d8e0e8; stroke-width: 2; }
  .panelSoft { fill: #f4f8fb; stroke: #d8e0e8; stroke-width: 2; }
  .title { font: 700 24px Arial, Helvetica, sans-serif; fill: #123f63; }
  .body { font: 18px Arial, Helvetica, sans-serif; fill: #5f7385; }
  .small { font: 15px Arial, Helvetica, sans-serif; fill: #5f7385; }
  .axis { font: 16px Arial, Helvetica, sans-serif; fill: #5f7385; }
  .chip { font: 700 16px Arial, Helvetica, sans-serif; fill: #123f63; }
  .label { font: 700 18px Arial, Helvetica, sans-serif; fill: #123f63; }
  .value { font: 700 18px Arial, Helvetica, sans-serif; fill: #1f2f3d; }
  .mutedStrong { font: 700 16px Arial, Helvetica, sans-serif; fill: #5f7385; }
</style>
<rect class="frame" x="1" y="1" rx="22" ry="22" width="1198" height="758"/>
<rect class="header" x="0" y="0" width="1200" height="82"/>
<text class="headerTitle" x="34" y="48">Convert Year 3 into Employability</text>
<text class="headerSub" x="34" y="69">Upper-year coursework must become proof</text><rect x="46" y="220" width="160" height="190" rx="18" ry="18" fill="#ffffff" stroke="#d8e0e8" stroke-width="2" filter="url(#shadow)"/><rect x="46" y="220" width="160" height="10" rx="18" ry="18" fill="#123f63"/><text x="64" y="262" font-family="Arial, Helvetica, sans-serif" font-size="19" font-weight="700" fill="#123f63" text-anchor="start"><tspan x="64" dy="0">GNSS / GIS /</tspan><tspan x="64" dy="21.8">Spatial AI /</tspan><tspan x="64" dy="21.8">Satcom classes</tspan></text><text x="64" y="337.6" font-family="Arial, Helvetica, sans-serif" font-size="14" font-weight="400" fill="#5f7385" text-anchor="start"><tspan x="64" dy="0">Must become</tspan><tspan x="64" dy="18.9">proof, not only</tspan><tspan x="64" dy="18.9">coursework.</tspan></text><line x1="206" y1="315" x2="244" y2="315" stroke="#123f63" stroke-width="4" stroke-linecap="round" marker-end="url(#arrow)"/><rect x="244" y="220" width="160" height="190" rx="18" ry="18" fill="#ffffff" stroke="#d8e0e8" stroke-width="2" filter="url(#shadow)"/><rect x="244" y="220" width="160" height="10" rx="18" ry="18" fill="#123f63"/><text x="262" y="262" font-family="Arial, Helvetica, sans-serif" font-size="19" font-weight="700" fill="#123f63" text-anchor="start"><tspan x="262" dy="0">Lab output</tspan></text><text x="262" y="294.0" font-family="Arial, Helvetica, sans-serif" font-size="16" font-weight="400" fill="#5f7385" text-anchor="start"><tspan x="262" dy="0">Must become</tspan><tspan x="262" dy="21.6">proof, not only</tspan><tspan x="262" dy="21.6">coursework.</tspan></text><line x1="404" y1="315" x2="442" y2="315" stroke="#123f63" stroke-width="4" stroke-linecap="round" marker-end="url(#arrow)"/><rect x="442" y="220" width="160" height="190" rx="18" ry="18" fill="#ffffff" stroke="#d8e0e8" stroke-width="2" filter="url(#shadow)"/><rect x="442" y="220" width="160" height="10" rx="18" ry="18" fill="#123f63"/><text x="460" y="262" font-family="Arial, Helvetica, sans-serif" font-size="19" font-weight="700" fill="#123f63" text-anchor="start"><tspan x="460" dy="0">Team project</tspan></text><text x="460" y="294.0" font-family="Arial, Helvetica, sans-serif" font-size="16" font-weight="400" fill="#5f7385" text-anchor="start"><tspan x="460" dy="0">Must become</tspan><tspan x="460" dy="21.6">proof, not only</tspan><tspan x="460" dy="21.6">coursework.</tspan></text><line x1="602" y1="315" x2="640" y2="315" stroke="#123f63" stroke-width="4" stroke-linecap="round" marker-end="url(#arrow)"/><rect x="640" y="220" width="160" height="190" rx="18" ry="18" fill="#ffffff" stroke="#d8e0e8" stroke-width="2" filter="url(#shadow)"/><rect x="640" y="220" width="160" height="10" rx="18" ry="18" fill="#123f63"/><text x="658" y="262" font-family="Arial, Helvetica, sans-serif" font-size="19" font-weight="700" fill="#123f63" text-anchor="start"><tspan x="658" dy="0">Industrial</tspan><tspan x="658" dy="21.8">training</tspan></text><text x="658" y="315.8" font-family="Arial, Helvetica, sans-serif" font-size="16" font-weight="400" fill="#5f7385" text-anchor="start"><tspan x="658" dy="0">Must become</tspan><tspan x="658" dy="21.6">proof, not only</tspan><tspan x="658" dy="21.6">coursework.</tspan></text><line x1="800" y1="315" x2="838" y2="315" stroke="#123f63" stroke-width="4" stroke-linecap="round" marker-end="url(#arrow)"/><rect x="838" y="220" width="160" height="190" rx="18" ry="18" fill="#ffffff" stroke="#d8e0e8" stroke-width="2" filter="url(#shadow)"/><rect x="838" y="220" width="160" height="10" rx="18" ry="18" fill="#123f63"/><text x="856" y="262" font-family="Arial, Helvetica, sans-serif" font-size="19" font-weight="700" fill="#123f63" text-anchor="start"><tspan x="856" dy="0">Capstone or</tspan><tspan x="856" dy="21.8">co-op</tspan></text><text x="856" y="315.8" font-family="Arial, Helvetica, sans-serif" font-size="16" font-weight="400" fill="#5f7385" text-anchor="start"><tspan x="856" dy="0">Must become</tspan><tspan x="856" dy="21.6">proof, not only</tspan><tspan x="856" dy="21.6">coursework.</tspan></text><line x1="998" y1="315" x2="1036" y2="315" stroke="#123f63" stroke-width="4" stroke-linecap="round" marker-end="url(#arrow)"/><rect x="1036" y="220" width="160" height="190" rx="18" ry="18" fill="#ffffff" stroke="#d8e0e8" stroke-width="2" filter="url(#shadow)"/><rect x="1036" y="220" width="160" height="10" rx="18" ry="18" fill="#123f63"/><text x="1054" y="262" font-family="Arial, Helvetica, sans-serif" font-size="19" font-weight="700" fill="#123f63" text-anchor="start"><tspan x="1054" dy="0">Job interview</tspan><tspan x="1054" dy="21.8">portfolio</tspan></text><text x="1054" y="315.8" font-family="Arial, Helvetica, sans-serif" font-size="16" font-weight="400" fill="#5f7385" text-anchor="start"><tspan x="1054" dy="0">Must become</tspan><tspan x="1054" dy="21.6">proof, not only</tspan><tspan x="1054" dy="21.6">coursework.</tspan></text><rect x="126" y="490" width="948" height="126" rx="18" ry="18" fill="#eaf5ef" stroke="#2f7a57" stroke-width="2"/><text x="154" y="530" font-family="Arial, Helvetica, sans-serif" font-size="24" font-weight="700" fill="#123f63" text-anchor="start">Conversion rule</text><text x="154" y="562" font-family="Arial, Helvetica, sans-serif" font-size="18" font-weight="400" fill="#5f7385" text-anchor="start"><tspan x="154" dy="0">Upper-year value compounds only when every stage leaves an artifact: code, map product, model</tspan><tspan x="154" dy="24.3">result, employer reference, operations note, or capstone proof that a recruiter can inspect.</tspan></text></svg>
